inDegrees=yes
name=ik_lifting_orientations
DataType=double
version=3
OpenSimVersion=4.5-2024-01-10-34fd6af
endheader
time	pelvis_tilt	pelvis_list	pelvis_rotation	pelvis_tx	pelvis_ty	pelvis_tz	hip_flexion_r	hip_adduction_r	hip_rotation_r	knee_angle_r	knee_angle_r_beta	ankle_angle_r	subtalar_angle_r	mtp_angle_r	hip_flexion_l	hip_adduction_l	hip_rotation_l	knee_angle_l	knee_angle_l_beta	ankle_angle_l	subtalar_angle_l	mtp_angle_l	lumbar_extension	lumbar_bending	lumbar_rotation	arm_flex_r	arm_add_r	arm_rot_r	elbow_flex_r	pro_sup_r	wrist_flex_r	wrist_dev_r	arm_flex_l	arm_add_l	arm_rot_l	elbow_flex_l	pro_sup_l	wrist_flex_l	wrist_dev_l
1.8	1.736655557986858	1.88279804731635	-86.04690106417624	0	0.9399999998679526	0	45.07189643705632	-10.0925225679852	0	60.11985418118397	1.04928940128054	-5.022701270949922	0	0	45.07189643705632	-10.0925225679852	0	60.11985418118397	1.04928940128054	-5.022701270949922	0	0	-0.8720275556140453	0.6725320736338756	5.132837314376707	0.3106012041366907	-40.2288194280482	3.027528970271497	179.9842615283871	1.086326073927374	0	0	0	-12.11457270974389	0	88.92863855242814	1.086326073927374	0	0
1.81	1.749767428039412	1.897942100623919	-86.07925223616371	0	0.9399999998679526	0	45.07185757082199	-10.09234784222301	0	60.11980338714275	1.04928851475728	-5.02264535411434	0	0	45.07185757082199	-10.09234784222301	0	60.11980338714275	1.04928851475728	-5.02264535411434	0	0	-0.932033301351652	0.722697936692128	5.223754893689297	-1.216742357199214	-41.17840443929007	2.162101873640984	179.9850667961058	1.08591740546869	0	0	0	-12.11537185758113	0	88.9290415239326	1.08591740546869	0	0
1.82	1.72802076971976	1.871374930322826	-86.1171866581238	0	0.9399999998679526	0	45.07181309108309	-10.09214777484411	0	60.11974534724591	1.049287501769983	-5.022581344187787	0	0	45.07181309108309	-10.09214777484411	0	60.11974534724591	1.049287501769983	-5.022581344187787	0	0	-1.135091984410731	0.9048479716307776	5.419326358235266	-4.137099517744557	-42.32680283517701	-0.5141591251120776	179.9865280160174	1.08544993069941	0	0	0	-12.1162855915094	0	88.92950248196917	1.08544993069941	0	0
1.83	1.737524388573992	1.881369126689871	-86.195824355407	0	0.9399999998679526	0	45.07176749150429	-10.091943111468	0	60.11968581112656	1.049286462668676	-5.022515915393491	0	0	45.07176749150429	-10.091943111468	0	60.11968581112656	1.049286462668676	-5.022515915393491	0	0	-1.326051654745975	1.057689120705342	5.78737708544536	-6.888156969662587	-43.38906532440988	-3.276509846204106	179.9871011565278	1.084970510595563	0	0	0	-12.11722292136752	0	88.9299752188215	1.084970510595563	0	0
1.84	1.668320660678465	1.804190511484529	-86.21173070852153	0	0.9399999998679526	0	45.07173812943871	-10.09181134683021	0	60.11964750581038	1.049285794114788	-5.022473805507921	0	0	45.07173812943871	-10.09181134683021	0	60.11964750581038	1.049285794114788	-5.022473805507921	0	0	-1.543084339759724	1.278705729911333	5.858703137605305	-6.729339103674656	-44.58475008697332	-3.523724992305937	179.9850151991229	1.084661866893604	0	0	0	-12.11782623712389	0	88.93027955994285	1.084661866893604	0	0
1.85	1.615544629850356	1.747461985413112	-86.20419043826458	0	0.9399999998679526	0	45.07171238140062	-10.09169592864362	0	60.11961390818358	1.049285207725579	-5.022436935767677	0	0	45.07171238140062	-10.09169592864362	0	60.11961390818358	1.049285207725579	-5.022436935767677	0	0	-1.800968759959343	1.499956298977011	5.987255130507508	-6.472976960816809	-45.82302121042486	-4.020283210907714	179.9820128076248	1.08439116800169	0	0	0	-12.11835543963512	0	88.93054648521621	1.08439116800169	0	0
1.86	1.520926528226526	1.632654166696374	-86.25233002861752	0	0.9399999998679526	0	45.07167821744105	-10.09154292587852	0	60.11956933175112	1.049284429720064	-5.022388081284822	0	0	45.07167821744105	-10.09154292587852	0	60.11956933175112	1.049284429720064	-5.022388081284822	0	0	-2.16571017533845	1.868719976949158	6.202296970963469	-6.801366031286949	-47.13692453347857	-4.463105947258996	179.976922568613	1.084031962626653	0	0	0	-12.11905768845612	0	88.93090068316813	1.084031962626653	0	0
1.87	1.471087307438341	1.590413905353771	-86.30871564746889	0	0.9399999998679526	0	45.07163054974498	-10.09132946262	0	60.11950719507347	1.049283345230453	-5.022319944960645	0	0	45.07163054974498	-10.09132946262	0	60.11950719507347	1.049283345230453	-5.022319944960645	0	0	-2.440289146803555	2.096020727887418	6.637700053941921	-7.241345246703471	-48.45021520566422	-5.812558524607732	179.9626301266369	1.083530897874693	0	0	0	-12.12003703052194	0	88.93139476293702	1.083530897874693	0	0
1.88	1.409466345325881	1.519034150672506	-86.44792729739702	0	0.9399999998679526	0	45.0715807854081	-10.09110694191579	0	60.11944232214154	1.049282212984195	-5.022248964616666	0	0	45.0715807854081	-10.09110694191579	0	60.11944232214154	1.049282212984195	-5.022248964616666	0	0	-2.745780022739285	2.354004272293034	7.128767378987892	-7.712538970592032	-49.83612348578949	-7.13718194780854	179.8746636415753	1.083007709956097	0	0	0	-12.12105970333795	0	88.93191065747104	1.083007709956097	0	0
1.89	1.303065910693606	1.414867799156463	-86.53226244078417	0	0.9399999998679526	0	45.0715182673725	-10.09082820157928	0	60.11936075787541	1.049280789419199	-5.02216014510442	0	0	45.0715182673725	-10.09082820157928	0	60.11936075787541	1.049280789419199	-5.02216014510442	0	0	-3.12029437969681	2.679233740883508	7.412386784922973	-9.569096862488017	-50.80524549705306	-9.166759013424709	179.1470669749288	1.08235011195826	0	0	0	-12.12234556684778	0	88.9325590883753	1.08235011195826	0	0
1.9	1.203463657013259	1.295820805422773	-86.68291222121024	0	0.9399999998679526	0	45.0711008410923	-10.08950841638696	0	60.11868085452601	1.049268922867157	-5.021770714897102	0	0	45.0711008410923	-10.08950841638696	0	60.11868085452601	1.049268922867157	-5.021770714897102	0	0	-3.543851043474182	3.059827215831044	7.775985368247682	-10.33611346491313	-51.76237000039823	-10.4252659947988	176.6703640388064	1.077545379933062	0	0	0	-12.13243751758206	0	88.93729684569027	1.077545379933062	0	0
1.91	1.116299173236257	1.191934447908049	-86.7676575547697	0	0.9399999998679526	0	45.0688222862759	-10.08285519335131	0	60.11489483432869	1.049202844349167	-5.019860618330885	0	0	45.0688222862759	-10.08285519335131	0	60.11489483432869	1.049202844349167	-5.019860618330885	0	0	-3.975046308637628	3.428858987228265	8.000618060843832	-3.007222166840483	-52.7006545640436	-5.320944227975732	169.5297401860375	1.050970483407519	0	0	0	-12.18875806823404	0	88.96350130938733	1.050970483407519	0	0
